<?xml version="1.0" standalone="no"?>
<!DOCTYPE svg PUBLIC "-//W3C//DTD SVG 20010904//EN"
 "http://www.w3.org/TR/2001/REC-SVG-20010904/DTD/svg10.dtd">
<svg version="1.0" xmlns="http://www.w3.org/2000/svg"
 width="399.000000pt" height="112.000000pt" viewBox="0 0 399.000000 112.000000"
 preserveAspectRatio="xMidYMid meet">

<g transform="translate(0.000000,112.000000) scale(0.100000,-0.100000)"
fill="#000000" stroke="none">
<path d="M2071 873 c-14 -3 -41 -17 -60 -31 -20 -14 -37 -27 -39 -28 -1 -1 1
-27 6 -58 l9 -56 -31 -9 c-17 -5 -24 -10 -16 -10 23 -2 104 -41 97 -47 -3 -3
-19 2 -36 10 -38 20 -36 21 -38 -14 -1 -17 -9 -37 -17 -46 -12 -12 -14 -33
-11 -98 2 -45 9 -96 15 -112 25 -65 106 -117 149 -95 25 14 41 14 21 1 -13 -8
-13 -10 2 -10 9 0 19 6 21 13 4 9 6 9 6 -1 1 -7 6 -10 13 -6 6 4 28 6 49 6 30
-1 39 2 44 18 4 11 11 18 16 14 6 -4 6 -11 -2 -20 -9 -11 -8 -14 5 -14 18 0
22 35 6 45 -5 3 -10 11 -10 16 0 6 4 8 8 5 5 -3 8 30 8 72 -1 71 -3 77 -21 75
-19 -1 -19 -1 -2 11 9 7 17 16 17 19 0 11 -34 -6 -47 -22 -10 -13 -11 -12 -7
9 4 18 3 21 -4 11 -8 -11 -10 -11 -15 0 -3 8 -6 4 -6 -8 -1 -13 -7 -23 -15
-23 -9 0 -12 7 -9 20 4 14 0 20 -11 20 -9 0 -16 -4 -16 -9 0 -21 13 -41 26
-41 8 0 14 -9 14 -19 0 -11 4 -22 9 -25 5 -4 7 4 5 16 -4 21 -4 21 4 3 6 -12
5 -27 -2 -38 -8 -14 -8 -20 4 -27 22 -14 -13 -25 -38 -11 -21 11 -34 13 -114
11 -31 0 -59 3 -62 8 -3 5 3 8 12 8 81 0 82 1 82 48 0 24 -5 46 -11 48 -9 3
-9 9 -1 25 13 23 5 120 -11 141 -7 8 -5 12 7 12 9 0 16 8 16 20 0 17 -5 19
-25 14 -15 -4 -25 -2 -25 5 0 6 7 8 17 4 11 -5 14 -3 8 6 -6 10 -2 11 15 6 15
-5 20 -4 16 4 -4 6 -2 11 3 11 6 0 11 7 11 15 0 12 4 13 18 7 9 -5 43 -9 75
-9 l57 0 0 59 0 58 -45 0 c-25 0 -45 -2 -45 -5 0 -2 14 -12 31 -20 17 -9 28
-19 25 -22 -3 -3 -24 6 -46 21 -38 25 -57 28 -109 19z m35 -61 c-8 -7 -65 31
-60 40 3 4 18 -2 34 -14 17 -12 28 -23 26 -26z m-86 -6 c0 -36 -17 -41 -18 -6
0 17 4 30 9 30 5 0 9 -11 9 -24z m-10 -50 c0 -3 -4 -8 -10 -11 -5 -3 -10 -1
-10 4 0 6 5 11 10 11 6 0 10 -2 10 -4z m4 -61 c3 -8 1 -15 -4 -15 -6 0 -10 7
-10 15 0 8 2 15 4 15 2 0 6 -7 10 -15z m-28 -107 c3 -24 1 -29 -6 -18 -11 16
-14 67 -4 57 4 -3 8 -21 10 -39z m44 5 c0 -10 -20 -40 -20 -31 0 3 -3 13 -6
22 -4 11 -1 16 10 16 9 0 16 -3 16 -7z m-35 -113 c3 -5 1 -10 -4 -10 -6 0 -11
5 -11 10 0 6 2 10 4 10 3 0 8 -4 11 -10z m-27 -105 c-3 -3 -9 2 -12 12 -6 14
-5 15 5 6 7 -7 10 -15 7 -18z m39 -57 c-3 -7 -5 -2 -5 12 0 14 2 19 5 13 2 -7
2 -19 0 -25z m163 -14 c0 -2 -9 -4 -21 -4 -11 0 -18 4 -14 10 5 8 35 3 35 -6z"/>
<path d="M310 631 c0 -145 4 -232 10 -236 6 -4 8 -11 4 -16 -3 -6 4 -7 19 -4
17 5 26 2 30 -9 4 -9 14 -16 22 -16 9 0 14 -4 10 -9 -3 -5 -1 -12 5 -16 6 -4
8 -11 5 -16 -4 -5 -13 -3 -21 5 -11 11 -22 12 -46 5 -18 -5 -34 -9 -35 -9 -2
0 -3 -4 -3 -9 0 -16 70 -23 101 -9 30 13 30 13 28 91 -1 56 -5 77 -14 73 -6
-2 -18 0 -26 5 -10 6 -8 9 11 9 24 0 25 1 22 65 -4 62 -3 65 20 65 12 0 30 -5
38 -11 12 -8 10 -9 -7 -4 -33 9 -32 5 34 -147 21 -48 51 -51 59 -8 4 16 10 27
15 24 5 -3 9 1 9 9 0 8 -8 18 -17 22 -15 5 -13 9 13 20 23 10 35 24 46 59 11
32 12 46 4 47 -6 1 0 4 14 8 19 6 28 3 38 -13 13 -21 13 -21 9 2 -3 12 -1 20
4 16 12 -7 12 -44 0 -44 -5 0 -7 -10 -4 -22 4 -22 4 -22 -11 -4 -14 17 -15 16
-13 -15 1 -19 6 -39 10 -46 4 -6 3 -13 -2 -15 -4 -1 -11 -47 -15 -100 -7 -98
-7 -98 16 -98 18 0 20 2 8 10 -12 8 -11 10 8 10 12 0 22 -4 22 -10 0 -5 14
-10 30 -10 l30 0 0 231 c0 226 0 231 -20 226 -11 -3 -20 -1 -20 4 0 5 7 9 15
9 8 0 15 4 15 9 0 4 -11 6 -25 3 -15 -2 -25 0 -25 7 0 6 -6 11 -14 11 -9 0
-12 -9 -9 -27 3 -24 2 -25 -6 -8 -15 31 -14 88 2 78 28 -18 87 -4 87 21 0 3
-29 6 -64 6 -59 0 -65 -2 -71 -22 -7 -25 -22 -62 -36 -90 -13 -26 -11 -38 9
-39 11 -1 9 -3 -7 -8 -17 -4 -29 -21 -43 -60 -20 -54 -21 -54 -37 -32 -9 12
-23 42 -30 67 -11 36 -17 43 -35 40 -11 -2 -15 -1 -8 1 7 3 9 9 6 15 -4 7 -2
8 4 4 7 -4 12 -2 12 3 0 6 -4 11 -10 11 -5 0 -10 10 -11 23 0 12 -8 40 -18 62
-16 36 -19 38 -25 18 -7 -23 -34 -21 -49 4 -4 7 -21 13 -37 13 l-30 0 0 -229z
m17 197 c-3 -8 -6 -5 -6 6 -1 11 2 17 5 13 3 -3 4 -12 1 -19z m78 -50 c6 -4 2
-8 -7 -8 -10 0 -18 7 -18 17 0 9 3 12 8 7 4 -5 12 -12 17 -16z m370 -58 c-3
-5 -12 -10 -18 -10 -7 0 -6 4 3 10 19 12 23 12 15 0z m-310 -60 c-4 -12 -9
-19 -12 -17 -3 3 -2 15 2 27 4 12 9 19 12 17 3 -3 2 -15 -2 -27z m222 -12 c-3
-8 -6 -5 -6 6 -1 11 2 17 5 13 3 -3 4 -12 1 -19z m87 -34 c4 -10 1 -14 -6 -12
-15 5 -23 28 -10 28 5 0 13 -7 16 -16z m-397 -16 c-3 -8 -6 -5 -6 6 -1 11 2
17 5 13 3 -3 4 -12 1 -19z m111 15 c-10 -2 -26 -2 -35 0 -10 3 -2 5 17 5 19 0
27 -2 18 -5z m142 -17 c0 -3 -4 -8 -10 -11 -5 -3 -10 -1 -10 4 0 6 5 11 10 11
6 0 10 -2 10 -4z m-280 -82 c0 -8 -4 -12 -10 -9 -5 3 -10 13 -10 21 0 8 5 12
10 9 6 -3 10 -13 10 -21z m240 12 c0 -11 -19 -15 -25 -6 -3 5 1 10 9 10 9 0
16 -2 16 -4z m147 -42 c-3 -3 -12 -4 -19 -1 -8 3 -5 6 6 6 11 1 17 -2 13 -5z
m-15 -136 c-9 -36 -20 -17 -19 34 l1 51 11 -34 c7 -19 10 -42 7 -51z m-372 68
c0 -2 -7 -7 -16 -10 -8 -3 -12 -2 -9 4 6 10 25 14 25 6z m427 -118 c-3 -7 -5
-2 -5 12 0 14 2 19 5 13 2 -7 2 -19 0 -25z"/>
<path d="M1203 806 c0 -29 22 -25 30 5 4 13 0 19 -13 19 -12 0 -17 -8 -17 -24z"/>
<path d="M1253 801 c5 -26 3 -29 -13 -26 -14 3 -20 -2 -20 -13 0 -15 -2 -15
-10 -2 -7 11 -10 -1 -10 -40 0 -39 3 -51 10 -40 8 12 10 11 10 -7 0 -12 -4
-24 -9 -28 -5 -3 -10 -84 -11 -180 l-1 -175 141 0 140 0 0 60 0 60 -34 0 c-19
0 -37 -6 -39 -12 -4 -10 -6 -10 -6 0 -1 7 -15 12 -35 12 -31 0 -34 3 -37 33
-7 63 -1 77 36 77 25 0 35 5 40 20 3 11 3 25 -1 31 -5 8 -3 9 5 4 8 -4 10 -17
7 -31 -6 -21 -3 -24 19 -24 14 0 25 6 26 13 3 31 -3 83 -10 90 -11 11 -39 -2
-44 -21 -3 -12 -5 -10 -6 6 -1 18 -7 22 -35 22 -21 0 -36 6 -40 16 -3 8 -12
12 -18 9 -7 -4 -6 -1 2 7 8 7 15 19 16 26 1 6 2 17 3 22 0 6 16 10 34 10 18 0
39 6 46 13 11 10 13 10 7 0 -5 -9 3 -13 28 -13 l36 0 0 55 0 55 -116 0 -116 0
5 -29z m167 -21 c0 -5 -5 -10 -11 -10 -5 0 -7 5 -4 10 3 6 8 10 11 10 2 0 4
-4 4 -10z m-160 -66 c0 -27 -15 -32 -24 -8 -3 8 -2 12 4 9 6 -3 10 -1 10 4 0
6 -4 11 -10 11 -5 0 -10 4 -10 10 0 5 7 7 15 4 8 -4 15 -17 15 -30z m-6 -86
c4 -24 3 -38 -4 -38 -5 0 -10 19 -10 42 0 49 5 47 14 -4z m23 -40 c-3 -7 -5
-2 -5 12 0 14 2 19 5 13 2 -7 2 -19 0 -25z m-30 -20 c0 -7 4 -21 8 -30 4 -11
3 -18 -4 -18 -6 0 -11 9 -11 20 0 12 -7 20 -17 21 -15 0 -15 2 2 9 11 5 20 9
21 9 0 1 1 -5 1 -11z m32 -48 l-1 -25 -8 25 c-4 14 -8 32 -9 40 -1 13 0 13 9
0 5 -8 9 -26 9 -40z m-13 -77 l-15 -28 -1 28 c0 16 4 26 10 22 6 -3 10 -1 10
6 0 7 3 10 6 7 3 -4 -1 -19 -10 -35z m6 -105 c-5 -5 -9 -3 -9 4 0 7 -3 27 -7
43 -6 30 -6 30 10 -4 9 -20 12 -37 6 -43z m28 39 c0 -5 -4 -5 -10 -2 -5 3 -10
14 -10 23 0 15 2 15 10 2 5 -8 10 -19 10 -23z"/>
<path d="M1690 820 c0 -3 -16 -4 -35 -2 -25 3 -36 0 -41 -12 -3 -9 -10 -14
-14 -11 -5 3 -15 -4 -24 -16 -14 -20 -14 -29 0 -92 3 -15 2 -27 -3 -26 -42 7
-38 -6 7 -23 30 -12 50 -23 43 -25 -7 -2 -21 0 -32 6 -23 13 -52 15 -35 3 6
-4 13 -15 17 -24 3 -10 16 -18 27 -18 21 0 27 -14 11 -25 -5 -3 -13 0 -17 7
-5 8 -10 6 -15 -8 -7 -17 -8 -17 -8 -1 -1 9 -7 17 -15 17 -8 0 -17 8 -20 18
-2 9 -3 -32 0 -91 5 -117 16 -151 60 -186 37 -29 71 -36 91 -20 11 10 14 10 9
2 -11 -19 104 -5 127 15 18 16 24 3 7 -14 -7 -7 -6 -11 4 -11 11 0 15 12 14
48 l-1 48 -61 1 c-76 0 -209 17 -153 19 l37 1 0 45 c0 28 -4 45 -12 45 -9 0
-9 3 0 12 7 7 12 38 12 70 0 44 -4 59 -17 67 -15 9 -16 10 -2 11 10 0 20 15
28 40 l12 40 49 -5 c35 -4 50 -2 50 6 0 8 4 8 15 -1 12 -10 15 -10 15 0 0 9 3
10 13 2 11 -9 13 -1 14 38 1 38 -2 50 -15 54 -23 8 -142 4 -142 -4z m86 -15
c10 -8 14 -15 8 -15 -5 0 -19 7 -30 15 -10 8 -14 15 -8 15 5 0 19 -7 30 -15z
m-108 -14 c31 -27 27 -33 -8 -13 -16 9 -30 20 -30 25 0 12 14 7 38 -12z m-58
-30 c0 -11 -5 -23 -10 -26 -6 -4 -8 -11 -5 -16 4 -5 1 -9 -5 -9 -8 0 -9 7 -5
18 4 9 7 25 7 35 0 9 3 17 9 17 5 0 9 -9 9 -19z m55 -71 c-3 -5 -16 -10 -28
-9 -21 0 -21 1 -2 9 28 12 37 12 30 0z m-55 -31 c0 -5 -4 -9 -10 -9 -5 0 -10
7 -10 16 0 8 5 12 10 9 6 -3 10 -10 10 -16z m-40 -294 c0 -5 -5 -3 -10 5 -5 8
-10 20 -10 25 0 6 5 3 10 -5 5 -8 10 -19 10 -25z m27 -37 c-3 -8 -6 -5 -6 6
-1 11 2 17 5 13 3 -3 4 -12 1 -19z m146 -15 c-7 -2 -19 -2 -25 0 -7 3 -2 5 12
5 14 0 19 -2 13 -5z"/>
<path d="M2490 799 c0 -27 3 -31 11 -19 9 13 10 12 5 -2 -3 -11 2 -21 12 -27
16 -9 16 -10 0 -16 -19 -7 -24 -40 -9 -49 5 -3 11 1 15 9 3 8 0 15 -7 15 -7 0
-4 5 6 11 9 5 22 7 27 4 6 -3 10 3 10 14 0 11 5 23 11 27 7 4 9 0 5 -14 -5
-13 2 -33 19 -57 14 -21 25 -44 25 -51 0 -17 42 -18 58 -2 7 7 12 8 12 2 0 -6
-11 -16 -25 -22 -14 -6 -25 -19 -25 -28 0 -15 2 -15 28 0 24 15 23 13 -5 -12
-34 -29 -42 -57 -20 -65 8 -4 9 -6 0 -6 -6 -1 -19 6 -27 15 -9 8 -16 13 -16
10 0 -9 -41 25 -97 83 -45 46 -58 71 -37 71 3 0 2 -4 -1 -10 -3 -5 3 -10 14
-10 26 0 27 12 1 35 -24 21 -27 47 -5 39 8 -4 15 -1 15 5 0 6 -4 11 -8 11 -5
0 -7 14 -4 31 4 30 4 30 -34 27 l-39 -3 -3 -107 c-2 -70 1 -108 8 -108 5 0 10
-5 10 -11 0 -5 -5 -7 -10 -4 -7 4 -10 -48 -9 -149 l1 -156 59 0 58 0 3 108 3
107 36 3 c33 3 38 0 48 -29 6 -18 11 -56 11 -85 0 -29 5 -65 12 -79 10 -22 17
-25 64 -25 l52 0 -11 35 c-9 31 -11 33 -23 17 -10 -12 -13 -13 -14 -3 0 9 -9
12 -30 9 -20 -3 -30 0 -30 9 0 7 0 16 0 21 0 4 6 7 13 7 6 0 16 6 20 13 11 17
37 15 37 -4 0 -8 4 -13 10 -9 12 8 4 133 -10 151 -7 7 -18 10 -26 7 -11 -4
-12 -9 -4 -18 8 -9 8 -15 0 -20 -12 -8 -25 20 -15 35 3 5 -1 10 -9 10 -9 0
-16 4 -16 10 0 5 6 7 13 4 7 -2 28 8 47 24 28 25 34 38 38 84 5 70 -15 121
-59 143 -18 10 -67 19 -111 22 l-78 6 0 -34z m-56 -5 c5 -14 4 -15 -9 -4 -17
14 -19 20 -6 20 5 0 12 -7 15 -16z m83 -286 c-3 -8 -6 -5 -6 6 -1 11 2 17 5
13 3 -3 4 -12 1 -19z"/>
<path d="M3060 823 c-19 -3 -41 -10 -49 -16 -11 -9 -13 -9 -8 0 5 8 -2 11 -23
11 -16 -1 -30 -5 -30 -10 0 -4 -8 -8 -18 -8 -15 0 -21 -14 -31 -80 -8 -44 -17
-78 -21 -75 -9 5 -25 -105 -21 -145 1 -17 -1 -21 -7 -12 -12 18 -32 -82 -25
-125 4 -24 1 -34 -11 -39 -20 -8 -21 -34 -1 -34 9 0 18 13 22 31 l6 31 14 -28
c12 -27 13 -27 8 -4 -3 14 -8 36 -11 50 -6 25 -6 24 9 -2 9 -15 17 -38 19 -50
2 -13 10 -23 18 -23 8 0 14 6 12 13 -1 7 6 15 15 19 24 9 33 23 33 51 0 12 7
25 15 28 8 4 15 17 15 30 0 13 4 24 8 24 4 0 8 -12 7 -27 0 -22 5 -29 23 -31
12 -2 22 -10 22 -18 0 -8 5 -13 11 -12 6 2 14 -3 17 -11 3 -8 0 -11 -7 -7 -7
5 -11 -2 -11 -19 0 -17 4 -24 11 -19 8 4 9 0 4 -15 -6 -20 -3 -21 59 -21 61 0
81 9 56 25 -5 3 -10 11 -10 16 0 6 5 7 10 4 17 -11 11 45 -16 150 -14 55 -28
111 -30 125 -3 14 -10 37 -17 52 -11 26 -12 26 -32 10 -17 -14 -17 -13 2 7 18
20 20 28 10 50 -6 14 -16 30 -22 34 -6 5 -2 6 9 3 16 -5 17 -2 12 21 -4 16 -7
34 -8 41 -1 6 -2 11 -2 10 -1 0 -17 -3 -36 -5z m-129 -126 c-10 -9 -11 -8 -5
6 3 10 9 15 12 12 3 -3 0 -11 -7 -18z m97 -127 c4 -20 13 -35 21 -35 8 0 16
-7 18 -15 4 -13 3 -13 -6 0 -9 13 -11 13 -11 -1 0 -11 -8 -15 -25 -14 -14 2
-25 -2 -25 -8 0 -7 -5 -4 -11 5 -6 12 -6 45 1 100 5 45 11 89 11 98 1 8 6 -10
11 -40 5 -30 12 -71 16 -90z m56 15 c-4 -8 -11 -12 -16 -9 -6 4 -5 10 3 15 19
12 19 11 13 -6z m-206 -180 l0 -30 -8 30 c-4 17 -8 39 -8 50 l-1 20 9 -20 c5
-11 8 -33 8 -50z m217 40 c-16 -14 -34 -25 -40 -25 -9 0 55 49 65 49 3 0 -8
-11 -25 -24z m-168 -37 c-3 -7 -5 -2 -5 12 0 14 2 19 5 13 2 -7 2 -19 0 -25z
m203 -38 c0 -5 -5 -10 -11 -10 -5 0 -7 5 -4 10 3 6 8 10 11 10 2 0 4 -4 4 -10z"/>
<path d="M933 814 c4 -7 0 -15 -9 -18 -8 -3 -12 -2 -9 4 4 6 -6 10 -22 10 -27
0 -29 -3 -31 -41 -3 -39 -2 -41 25 -39 58 4 76 -4 23 -10 -53 -6 -53 -7 -12
-8 l42 -2 0 -40 c0 -25 5 -40 13 -40 7 0 8 -3 2 -8 -11 -8 -19 -248 -10 -299
7 -38 39 -46 48 -12 3 12 10 18 16 14 6 -3 11 0 11 8 0 7 8 22 18 33 13 14 18
37 19 83 1 35 5 78 9 94 4 19 2 27 -4 23 -7 -4 -6 7 1 30 13 44 2 54 -57 47
-22 -3 -38 -2 -34 2 7 7 27 11 76 14 16 1 22 7 22 26 0 20 5 25 28 26 15 1 32
1 39 0 7 -1 11 17 11 48 1 40 -3 50 -19 54 -10 3 -22 1 -25 -4 -8 -14 -148
-11 -163 4 -9 7 -11 7 -8 1z m184 -56 c-3 -7 -5 -2 -5 12 0 14 2 19 5 13 2 -7
2 -19 0 -25z m-90 -280 c-3 -8 -6 -5 -6 6 -1 11 2 17 5 13 3 -3 4 -12 1 -19z
m-70 -80 c-3 -8 -6 -5 -6 6 -1 11 2 17 5 13 3 -3 4 -12 1 -19z"/>
<path d="M3250 605 c0 -132 4 -215 10 -215 5 0 7 -6 4 -14 -4 -10 2 -12 20 -9
16 3 26 1 26 -6 0 -6 6 -11 14 -11 18 0 30 -30 16 -44 -7 -7 -10 -6 -10 2 0 7
-11 12 -24 12 -30 0 -56 -9 -56 -20 0 -16 61 -22 91 -10 28 12 29 14 29 87 0
46 -4 72 -10 68 -5 -3 -18 -1 -27 4 -16 9 -15 10 7 11 24 0 25 2 22 60 -3 55
-2 60 17 60 13 0 19 -5 15 -14 -3 -7 4 -33 15 -57 11 -24 27 -61 35 -81 18
-46 44 -50 52 -8 4 16 10 27 15 24 5 -3 9 4 9 15 0 12 -6 21 -12 22 -7 0 -3 4
10 9 25 11 65 91 50 101 -5 3 0 9 12 12 16 4 24 0 30 -16 9 -21 9 -21 10 3 1
23 2 23 10 5 12 -28 12 -47 0 -40 -6 3 -10 -4 -11 -17 0 -22 -1 -22 -9 -3 -7
15 -9 8 -9 -30 0 -27 -3 -89 -6 -137 -5 -76 -4 -88 10 -88 9 0 13 5 10 10 -3
6 1 10 9 10 9 0 16 -4 16 -10 0 -5 14 -10 30 -10 l30 0 0 216 c0 211 0 216
-20 211 -11 -3 -20 -1 -20 4 0 5 7 9 15 9 8 0 15 4 15 9 0 4 -11 6 -25 3 -15
-2 -25 0 -25 7 0 22 -20 11 -21 -11 l0 -23 -9 22 c-13 32 -2 62 21 56 24 -7
69 5 69 17 0 6 -27 10 -60 10 -49 0 -62 -3 -66 -17 -8 -23 -24 -64 -35 -85
-12 -25 -12 -26 14 -31 19 -4 19 -4 -5 -6 -24 -1 -29 -8 -44 -56 -19 -58 -29
-67 -39 -35 -3 11 -11 20 -16 20 -6 0 -8 4 -5 9 3 4 0 22 -7 40 -9 24 -16 30
-32 25 -11 -3 -15 -2 -9 3 12 9 11 27 -7 91 -12 44 -29 65 -29 37 0 -12 -6
-15 -22 -9 -13 3 -24 11 -26 15 -2 5 -17 9 -33 9 l-29 0 0 -215z m100 132 c10
-4 8 -6 -7 -6 -12 -1 -24 3 -27 8 -7 11 6 24 13 13 3 -5 13 -12 21 -15z m300
-21 c0 -3 -4 -8 -10 -11 -5 -3 -10 -1 -10 4 0 6 5 11 10 11 6 0 10 -2 10 -4z
m-259 -93 c-8 -15 -10 -15 -11 -2 0 17 10 32 18 25 2 -3 -1 -13 -7 -23z m209
11 c0 -8 -5 -12 -10 -9 -6 4 -8 11 -5 16 9 14 15 11 15 -7z m-283 -10 c-3 -3
-12 -4 -19 -1 -8 3 -5 6 6 6 11 1 17 -2 13 -5z m89 -32 c-16 -2 -32 0 -37 5
-5 5 7 7 29 4 34 -5 35 -6 8 -9z m278 3 c3 -8 1 -15 -4 -15 -6 0 -10 7 -10 15
0 8 2 15 4 15 2 0 6 -7 10 -15z m-366 -20 c-3 -3 -9 2 -12 12 -6 14 -5 15 5 6
7 -7 10 -15 7 -18z m232 1 c0 -3 -4 -8 -10 -11 -5 -3 -10 -1 -10 4 0 6 5 11
10 11 6 0 10 -2 10 -4z m-236 -61 c-4 -8 -11 -12 -16 -9 -6 4 -5 10 3 15 19
12 19 11 13 -6z m-30 -10 c3 -8 1 -15 -4 -15 -6 0 -10 7 -10 15 0 8 2 15 4 15
2 0 6 -7 10 -15z m221 5 c3 -5 1 -10 -4 -10 -6 0 -11 5 -11 10 0 6 2 10 4 10
3 0 8 -4 11 -10z m125 -172 c-8 -20 -9 -19 -9 14 -1 20 -3 45 -6 55 -3 10 1 4
10 -14 10 -22 12 -39 5 -55z m-345 61 c11 -16 1 -19 -13 -3 -7 8 -8 14 -3 14
5 0 13 -5 16 -11z m38 -13 c4 -10 1 -13 -8 -9 -8 3 -12 9 -9 14 7 12 11 11 17
-5z"/>
<path d="M2150 582 c0 -36 24 -38 40 -3 11 24 13 24 24 8 15 -20 56 -23 56 -4
0 8 4 7 11 -3 8 -12 10 -12 7 5 -3 17 -12 20 -71 23 l-67 3 0 -29z"/>
<path d="M2577 583 c-12 -12 -7 -22 8 -17 8 4 15 10 15 15 0 11 -14 12 -23 2z"/>
</g>
</svg>
